# xmcd CD database file
#
# Track frame offsets:
#	150
#	14492
#	26725
#	41460
#	60320
#	78147
#	93375
#	108097
#	129387
#	147672
#	164352
#	179857
#	201325
#	223472
#	237390
#	247422
#
# Disc length: 3456 seconds
#
# Revision: 4
# Processed by: cddbd v1.5PL3 Copyright (c) Steve Scherf et al.
# Submitted via: CDex 1.40Release
#
DISCID=ef0d7e10
DTITLE=John Denver - The Unplugged Collection - Greatest Hits
DYEAR=1996
DGENRE=Pop/Country
TTITLE0=Annie's Song
TTITLE1=Perhaps Love
TTITLE2=Dreamland Express
TTITLE3=Rocky Mountain High
TTITLE4=Seasons Of The Heart
TTITLE5=Whispering Jesse
TTITLE6=Take Me Home, Country Roads
TTITLE7=For You
TTITLE8=Windsong
TTITLE9=Leaving On A Jet Plane
TTITLE10=I'm Sorry
TTITLE11=Back Home Again
TTITLE12=Sunshine On My Shoulder
TTITLE13=Thank God I'm A Country Boy
TTITLE14=Christmas For Cowboys
TTITLE15=Love Again
EXTD=CMC RECORDS A/S\nCMC 6053-2 YEAR: 1996
EXTT0=
EXTT1=
EXTT2=
EXTT3=
EXTT4=
EXTT5=
EXTT6=
EXTT7=
EXTT8=
EXTT9=
EXTT10=
EXTT11=
EXTT12=
EXTT13=
EXTT14=
EXTT15=
PLAYORDER=
